<?xml version="1.0" encoding="utf-8"?>
<!-- Generator: Adobe Illustrator 21.1.0, SVG Export Plug-In . SVG Version: 6.00 Build 0)  -->
<svg version="1.1" id="圖層_1" xmlns="http://www.w3.org/2000/svg" xmlns:xlink="http://www.w3.org/1999/xlink" x="0px" y="0px"
	 width="600px" height="200px" viewBox="0 0 600 200" style="enable-background:new 0 0 600 200;" xml:space="preserve">
<path style="fill-rule:evenodd;clip-rule:evenodd;fill:#FFFFFF;" d="M290.6754456,121.2416229h22.2520142
	c5.0294189,0,8.9423218,2.0715408,8.9423218,9.0545959c0,6.9839172-4.0838318,8.8884277-9.1132507,8.8884277h-28.7347107
	c-1.5101624,0-2.7344055-1.2242279-2.7344055-2.734375v-0.0000153c0-1.5101471,1.2242432-2.734375,2.7344055-2.734375h27.7252502
	c1.8164368,0,3.2889404-1.4725189,3.2889404-3.2889557v-0.3938751c0-1.816452-1.4725037-3.2889709-3.2889404-3.2889709h-21.9111938
	c-5.0313416,0-9.2831421-2.0733414-9.2831421-9.0526123c0-6.9829559,4.0828857-8.8855362,9.1142273-8.8855362h28.7070312
	c1.5101624,0,2.734375,1.2242203,2.734375,2.734375v0.0000076c0,1.5101547-1.2242126,2.734375-2.734375,2.734375h-27.6985474
	c-1.8164368,0-3.2889404,1.4725189-3.2889404,3.2889633v0.3890076
	C287.3865051,119.769104,288.8590088,121.2416229,290.6754456,121.2416229z M481.9724731,117.9526596v-0.3890076
	c0-1.8164444,1.4725342-3.2889633,3.2889709-3.2889633h27.6985168c1.5101929,0,2.734375-1.2242203,2.734375-2.734375v-0.0000076
	c0-1.5101547-1.2241821-2.734375-2.734375-2.734375h-28.7070312c-5.0313416,0-9.1141968,1.9025803-9.1141968,8.8855362
	c0,6.9792709,4.2518005,9.0526123,9.2831421,9.0526123h21.9111633c1.8164368,0,3.2889709,1.4725189,3.2889709,3.2889709v0.3938751
	c0,1.8164368-1.4725342,3.2889557-3.2889709,3.2889557h-27.7252502c-1.5101624,0-2.734375,1.2242279-2.734375,2.734375v0.0000153
	c0,1.5101471,1.2242126,2.734375,2.734375,2.734375h28.7347107c5.0294495,0,9.1132507-1.9045105,9.1132507-8.8884277
	c0-6.9830551-3.9129028-9.0545959-8.9423218-9.0545959h-22.2519836
	C483.4450073,121.2416229,481.9724731,119.769104,481.9724731,117.9526596z M375.5898438,111.2359009L375.5898438,111.2359009
	c0-1.5101547-1.2242432-2.734375-2.734375-2.7343826h-35.7958374c-1.5101318,0-2.734375,1.2242203-2.734375,2.734375v0.0000076
	c0,1.5101547,1.2242126,2.734375,2.734375,2.734375h14.4810486v22.1019135c0,1.887085,1.5297852,3.4168701,3.4168701,3.4168701l0,0
	c1.887085,0,3.4168701-1.5297852,3.4168701-3.4168701v-22.1019135h14.4810486
	C374.3656006,113.9702759,375.5898438,112.7460556,375.5898438,111.2359009z M261.7072754,111.9183884
	c0-1.887085-1.5297852-3.4168701-3.4168396-3.4168701h-0.0000305c-1.887085,0-3.4168549,1.5297852-3.4168549,3.4168701v24.153801
	c0,1.887085,1.5297699,3.4168701,3.4168549,3.4168701l0,0c1.887085,0,3.4168701-1.5297852,3.4168701-3.4168701V111.9183884z
	 M397.9724121,111.9183884c0-1.887085-1.5297852-3.4168701-3.4168701-3.4168701l0,0
	c-1.887085,0-3.4168701,1.5297852-3.4168701,3.4168701v24.153801c0,1.887085,1.5297852,3.4168701,3.4168701,3.4168701l0,0
	c1.887085,0,3.4168701-1.5297852,3.4168701-3.4168701V111.9183884z M83.5442505,132.7176666
	c0,3.7397308,3.031662,6.7713928,6.7714005,6.7713928h28.5956039c1.5101547,0,2.734375-1.2241974,2.734375-2.7477875v-0.0687408
	c0-1.4684753-1.1906052-2.6588135-2.6590881-2.658493l-25.9477692,0.0056763
	c-1.4694138,0.0003204-2.6607742-1.1907806-2.6607742-2.6601868v-19.4406967c0-1.8871613-1.5297165-3.4170685-3.4168701-3.4173126
	h-0.0000076c-1.8870087-0.0002441-3.4168701,1.5294113-3.4168701,3.4164276V132.7176666z M423.6438904,116.6310577
	c0-1.4694366,1.1914062-2.6605453,2.6607666-2.6601944l28.849823,0.0056686
	c1.4684753,0.000351,2.6590576-1.1900482,2.6590576-2.6584778v-0.0687866c0-1.5235748-1.2242126-2.7477493-2.7343445-2.7477493
	H423.581543c-3.7397156,0-6.7713928,3.0316238-6.7713928,6.7713928v17.4447556c0,3.7397156,3.0316772,6.7713928,6.7713928,6.7713928
	h31.4976501c1.5101318,0,2.7343445-1.2241821,2.7343445-2.747818v-0.0687256c0-1.4684753-1.1905823-2.6588287-2.6590576-2.6584778
	l-28.849823,0.0056763c-1.4693604,0.0002899-2.6607666-1.1907654-2.6607666-2.6601868V116.6310577z M229.7300568,121.0769653
	h-15.0528412c-1.5101166,0-2.7343445,1.2241745-2.7343445,2.7477493v0.0687866c0,1.4684296,1.1905823,2.6588287,2.6590576,2.6584778
	l12.4049988-0.0056686c1.4693756-0.000351,2.6607819,1.1907578,2.6607819,2.6601868v2.1530304
	c0,1.4694214-1.1914062,2.6604767-2.6607819,2.6601868h-22.3314056c-1.4693756,0.0002899-2.6607208-1.1908112-2.6607208-2.6601868
	v-14.7284698c0-1.4693756,1.1913452-2.6604919,2.6607208-2.6601944l28.8499298,0.0056686
	c1.4684906,0.0002975,2.6590118-1.1900482,2.6590118-2.6584778v-0.0687866c0-1.5235748-1.2242432-2.7477493-2.7343597-2.7477493
	h-31.4976501c-3.7397156,0-6.7713928,3.0316849-6.7713928,6.7713928v17.4447556
	c0,3.7397156,3.0316772,6.7713928,6.7713928,6.7713928h27.7776031c3.7397156,0,6.7713928-3.0316772,6.7713928-6.7713928v-4.8693085
	C236.5014496,124.1085892,233.4697723,121.0769653,229.7300568,121.0769653z M177.1080933,115.2729111v17.4447556
	c0,3.7397614-3.0316772,6.7713928-6.7713928,6.7713928h-27.4606171c-3.7397156,0-6.7713928-3.0316772-6.7713928-6.7713928
	v-17.4447556c0-3.739769,3.0316772-6.7713928,6.7713928-6.7713928h27.4606171
	C174.076416,108.5015182,177.1080933,111.5332031,177.1080933,115.2729111z M170.274353,116.6310577
	c0-1.4694366-1.1914062-2.6604919-2.6607819-2.6601944h-22.0143585c-1.4693756-0.000351-2.6607819,1.1907578-2.6607819,2.6601944
	v14.7284698c0,1.4694214,1.1914062,2.6604767,2.6607819,2.6601868h22.0143585
	c1.4693756,0.000351,2.6607819-1.1907654,2.6607819-2.6601868V116.6310577z"/>
<path style="fill-rule:evenodd;clip-rule:evenodd;fill:#FFFFFF;" d="M102.4914398,3.6337237
	c1.7708206,3.3342347,0.5054321,7.4708791-2.8273468,9.2440166L54.6112938,36.8322258l45.5661659,29.5917702
	c3.1670761,2.0560837,4.0659332,6.2924576,2.0088806,9.4552841c-2.0541534,3.166008-6.2867508,4.066803-9.4542236,2.0112
	L40.8092575,44.1718369L15.1883345,57.7940445v13.6022797c0,4.1900406-3.3988533,7.5932465-7.5932484,7.5932465
	C3.3988531,78.9895706,0,75.5863647,0,71.3963242V7.5994391c0-4.1967168,3.3988531-7.5975046,7.5950861-7.5975046
	c4.1943951,0,7.5932484,3.4007876,7.5932484,7.5975046v34.7123947L93.2474213,0.8082143
	C96.5816574-0.9626021,100.7182999,0.2994891,102.4914398,3.6337237 M143.1604309,14.4336138h74.815979
	c3.5675507,0,6.4582672-2.8906116,6.4582672-6.4568143c0-3.5661068-2.8907166-6.453526-6.4582672-6.453526h-78.6063995h-0.0034027
	c-10.7422333,0-18.2254944,7.5040588-18.2254944,18.2269497v39.495224c0,10.7225037,7.4832611,18.2260742,18.2254944,18.2260742
	c0.0076447,0,0.0090027-0.0028992,0.0160675-0.0028992l78.5937347,0.0028992c3.5675507,0,6.4582672-2.8893509,6.4582672-6.4564209
	c0-3.5633011-2.8907166-6.4549026-6.4582672-6.4549026l-74.8338776-0.0019302
	c-4.0866241-0.0080109-6.8110504-2.8046989-6.8110504-6.8327103V45.9516487h69.4903717
	c3.569397,0,6.459137-2.8888702,6.459137-6.4563293c0-3.5629158-2.88974-6.4559593-6.459137-6.4559593h-69.4903717V21.2683697
	C136.3314819,17.2345524,139.0643311,14.4360323,143.1604309,14.4336138 M600,7.607935V7.5994391
	C600,3.4027224,596.59729,0,592.4057617,0c-4.196228,0-7.5932007,3.4027224-7.5932007,7.5994391h-0.0056152v26.5806255h-67.6119995
	c-4.0894165-0.0127869-6.8157959-2.8099365-6.8157959-6.8346596c0,0,0-0.0032883,0-0.0075607V7.5994391
	C510.3791504,3.4027224,506.9803162,0,502.7840576,0c-4.1952515,0-7.5942078,3.4027224-7.5942078,7.5994391v21.2654667
	c0,10.7220192,7.4874268,18.2269478,18.2292786,18.2269478h0.0122681h71.3755493v10.6463737
	c0,4.0195808-2.7282104,6.812027-6.8101807,6.8200378l-70.2778015,0.0019302c-3.5641785,0-6.454895,2.8916016-6.454895,6.4549026
	c0,3.56707,2.8907166,6.4564209,6.454895,6.4564209h74.0412903h0.010498C592.517334,77.4715195,600,69.9679489,600,59.2431221
	v-0.0047379V7.607935z M325.8218079,46.5567207c12.5820923,0,22.7798157-4.3441391,22.7798157-22.2493496
	c0-17.9057922-10.1977234-22.7869205-22.7798157-22.7869205h-74.4295349c-4.1972046,0-7.594696,3.4004173-7.594696,7.5961666
	v62.279705c0,4.1947861,3.3974915,7.5932465,7.594696,7.5932465c4.1947784,0,7.5937195-3.3984604,7.5937195-7.5932465V14.4336138
	h64.5553894c5.4535828,0,9.8737488,2.1132555,9.8737488,9.8737574c0,7.7495708-4.4134827,9.8675671-9.8539124,9.872694h-45.0040588
	c-3.5670776,0-6.4568176,2.8888702-6.4568176,6.4563293c0,2.5515594,1.4864502,4.7512932,3.6341248,5.8002815l-0.0070496,0.0066719
	l61.3662415,31.7730293c3.3478699,1.7438278,7.4761047,0.4411087,9.2171021-2.9072495
	c1.7420044-3.350296,0.4449768-7.4737854-2.9038391-9.2195587l-39.709198-19.5328484h22.1156616H325.8218079z
	 M452.2876282,46.5567207c12.5811768,0,22.7807312-4.3441391,22.7807312-22.2493496
	c0-17.9057922-10.1995544-22.7869205-22.7807312-22.7869205h-74.431427c-4.1924744,0-7.5971069,3.4004173-7.5971069,7.5961666
	v62.279705c0,4.1947861,3.4046326,7.5932465,7.5971069,7.5932465c4.1970825,0,7.5932312-3.3984604,7.5932312-7.5932465V14.4336138
	h64.5558777c5.4517212,0,9.8746033,2.1132555,9.8746033,9.8737574c0,7.7495708-4.4134827,9.8675671-9.8556519,9.872694h-45.0031738
	c-3.5661011,0-6.4549866,2.8888702-6.4549866,6.4563293c0,2.5515594,1.4841003,4.7512932,3.6332397,5.8002815l-0.0037537,0.0066719
	l61.3591614,31.7730293c3.3516541,1.7438278,7.4770813,0.4411087,9.2237244-2.9072495
	c1.7419739-3.350296,0.4420776-7.4737854-2.9076538-9.2195587l-39.708313-19.5328484h22.1185608H452.2876282z"/>
<path style="opacity:0.5;fill-rule:evenodd;clip-rule:evenodd;fill:#FFFFFF;" d="M92.1225815,194.5238342H69.7943039
	c-1.4691849,0-2.6601944-1.1910095-2.6601944-2.6601868v-19.4437866c0-1.8862152-1.529068-3.4152832-3.4152794-3.4152832h-0.0000076
	c-1.8860474,0-3.4150581,1.5288239-3.4152794,3.4148865l-0.0024376,20.8009338
	c-0.0004387,3.7400513,3.0313454,6.7721863,6.7713966,6.7721863h27.7726212c3.7397308,0,6.7713928-3.0316467,6.7713928-6.7713928
	v-20.7997437c0-1.887085-1.5297852-3.4168701-3.4168701-3.4168701h-0.0000076c-1.887085,0-3.4168701,1.5297852-3.4168701,3.4168701
	v19.4421997C94.7827682,193.3328247,93.5917587,194.5238342,92.1225815,194.5238342z M130.9444733,181.7449188h22.2519836
	c5.0294189,0,8.9423218,2.0715332,8.9423218,9.0545959c0,6.9839172-4.0838165,8.8884277-9.1132355,8.8884277h-28.734726
	c-1.5101547,0-2.7343826-1.2242279-2.7343826-2.734375v-0.0000153c0-1.5101471,1.2242279-2.734375,2.7343826-2.734375h27.7252502
	c1.8164368,0,3.2889557-1.4725189,3.2889557-3.2889557v-0.3938751c0-1.816452-1.4725189-3.2889709-3.2889557-3.2889709h-21.9111786
	c-5.0313339,0-9.2831268-2.0733337-9.2831268-9.0526123c0-6.9829559,4.0828552-8.8855286,9.1141968-8.8855286h28.7070465
	c1.5101471,0,2.734375,1.2242126,2.734375,2.734375l0,0c0,1.5101624-1.2242279,2.734375-2.734375,2.734375h-27.6985321
	c-1.816452,0-3.2889709,1.4725189-3.2889709,3.2889709v0.3890076
	C127.6555023,180.2723999,129.1280212,181.7449188,130.9444733,181.7449188z M214.0701599,174.4735718h-14.4810333v22.1019135
	c0,1.887085-1.5297852,3.4168701-3.4168701,3.4168701h-0.0000153c-1.887085,0-3.4168549-1.5297852-3.4168549-3.4168701v-22.1019135
	h-14.4810486c-1.5101471,0-2.734375-1.2242126-2.734375-2.734375l0,0c0-1.5101624,1.2242279-2.7343903,2.734375-2.7343903
	l35.7958221,0.0000153c1.5101471,0,2.734375,1.2242126,2.734375,2.734375l0,0
	C216.8045349,173.2493591,215.580307,174.4735718,214.0701599,174.4735718z M354.0319214,172.4212494
	c0-1.8870239,1.5298462-3.4166718,3.4168701-3.4164429l0,0c1.887146,0.0002441,3.4168701,1.5301666,3.4168701,3.4173126v19.4407043
	c0,1.4694061,1.1913452,2.6605072,2.6607666,2.6601868l25.9477844-0.0056763
	c1.4684753-0.0003204,2.6590881,1.1900177,2.6590881,2.6585083v0.0687408c0,1.5235748-1.2242432,2.7477722-2.734375,2.7477722
	h-28.5956116c-3.7397461,0-6.7713928-3.031662-6.7713928-6.7713928V172.4212494z M258.0535889,187.2250977l13.5828552,7.6575012
	c1.2789612,0.7210388,1.7603149,2.323349,1.0904541,3.629837v0.0000153
	c-0.7087708,1.382309-2.4252014,1.8973541-3.7779236,1.1336212l-21.0081329-11.8611908
	c-1.0121307-0.5714569-1.6380768-1.6436768-1.6380768-2.8059845v-0.0000153c0-1.7796326,1.442688-3.2223206,3.2223358-3.2223206
	h15.6255341c1.8164368,0,3.2889404-1.4725189,3.2889404-3.2889709v-0.7126923c0-1.816452-1.4725037-3.2889709-3.2889404-3.2889709
	h-25.209137v22.1009521c0,1.887085-1.5297852,3.4168701-3.4168701,3.4168701l0,0
	c-1.887085,0-3.4168701-1.5297852-3.4168701-3.4168701v-24.1549988c0-1.8858948,1.5288239-3.4147034,3.4147186-3.4147034h29.7696686
	c4.9606323,0,8.9811707,1.9523773,8.9811707,9.1144409c0,7.16185-4.0205383,9.1134796-8.9811707,9.1134796H258.0535889z
	 M34.5440445,169.0045776H6.7713947C3.0316823,169.0045776,0,172.0362091,0,175.7759705v20.7997437
	c0,1.8871002,1.529834,3.4168701,3.4168713,3.4168701h0.0000591c1.8870375,0,3.4168122-1.5297699,3.4168122-3.4168701v-9.3427887
	h27.6486607v9.3443909c0,1.8862,1.5291252,3.4152679,3.4152794,3.4152679h0.0000572
	c1.8860321,0,3.4150429-1.5288239,3.4152756-3.414856l0.0024223-20.8009796
	C41.3158493,172.0367279,38.284111,169.0045776,34.5440445,169.0045776z M6.8337426,181.7641754v-4.6306458
	c0-1.4692078,1.191052-2.660202,2.6601911-2.660202h22.3282776c1.4691963,0,2.6601906,1.1909943,2.6601906,2.660202v4.6306458
	H6.8337426z M328.0552673,169.0045776h-27.772644c-3.7397156,0-6.7713928,3.0316315-6.7713928,6.7713928v20.7997437
	c0,1.8871002,1.5298462,3.4168701,3.4168701,3.4168701h0.000061c1.8870239,0,3.4168091-1.5297699,3.4168091-3.4168701v-9.3427887
	h27.6486511v9.3443909c0,1.8862,1.5291443,3.4152679,3.4152832,3.4152679h0.000061
	c1.8860474,0,3.4150391-1.5288239,3.4152832-3.414856l0.0024109-20.8009796
	C334.8270874,172.0367279,331.7953491,169.0045776,328.0552673,169.0045776z M300.3449707,181.7641754v-4.6306458
	c0-1.4692078,1.19104-2.660202,2.6601868-2.660202h22.3282776c1.4692078,0,2.6601868,1.1909943,2.6601868,2.660202v4.6306458
	H300.3449707z M480.0472412,181.7449188h22.2519836c5.0294189,0,8.9423218,2.0715332,8.9423218,9.0545959
	c0,6.9839172-4.0838013,8.8884277-9.1132202,8.8884277h-28.7347412c-1.5101624,0-2.734375-1.2242279-2.734375-2.734375v-0.0000153
	c0-1.5101471,1.2242126-2.734375,2.734375-2.734375h27.7252502c1.8164368,0,3.2889709-1.4725189,3.2889709-3.2889557v-0.3938751
	c0-1.816452-1.4725037-3.2889709-3.2889709-3.2889709h-21.9111633c-5.0313416,0-9.2831421-2.0733337-9.2831421-9.0526123
	c0-6.9829559,4.0828552-8.8855286,9.1141968-8.8855286h28.7070618c1.5101318,0,2.734375,1.2242126,2.734375,2.734375l0,0
	c0,1.5101624-1.2242432,2.734375-2.734375,2.734375h-27.6985474c-1.8164368,0-3.2889709,1.4725189-3.2889709,3.2889709v0.3890076
	C476.7582703,180.2723999,478.2308044,181.7449188,480.0472412,181.7449188z M538.2478638,196.5754852
	c0,1.887085-1.5297852,3.4168701-3.4168701,3.4168701l0,0c-1.887085,0-3.4168701-1.5297852-3.4168701-3.4168701v-24.1537933
	c0-1.8871002,1.5297852-3.4168854,3.4168701-3.4168701l0,0c1.887085,0,3.4168701,1.5297852,3.4168701,3.4168701V196.5754852z
	 M444.9152527,169.0045776h-27.7726746c-3.7397156,0-6.7713928,3.0316315-6.7713928,6.7713928v20.7997437
	c0,1.8871002,1.5298462,3.4168701,3.4168701,3.4168701h0.000061c1.8870544,0,3.4168091-1.5297699,3.4168091-3.4168701v-9.3427887
	h27.6486816v9.3443909c0,1.8862,1.5291138,3.4152679,3.4152832,3.4152679h0.0000305
	c1.8860474,0,3.4150696-1.5288239,3.4152832-3.414856l0.0024414-20.8009796
	C451.6870422,172.0367279,448.655304,169.0045776,444.9152527,169.0045776z M417.2049255,181.7641754v-4.6306458
	c0-1.4692078,1.1910706-2.660202,2.6602173-2.660202h22.3282776c1.4691772,0,2.6601868,1.1909943,2.6601868,2.660202v4.6306458
	H417.2049255z M593.2285767,169.0045776h-27.772644c-3.7396851,0-6.7713623,3.0316315-6.7713623,6.7713928v20.7997437
	c0,1.8871002,1.5298462,3.4168701,3.4168701,3.4168701h0.000061c1.8870239,0,3.4168091-1.5297699,3.4168091-3.4168701v-9.3427887
	h27.6486816v9.3443909c0,1.8862,1.5291138,3.4152679,3.4152222,3.4152679h0.000061
	c1.8860474,0,3.4150391-1.5288239,3.4152832-3.414856L600,175.7767487
	C600.0004272,172.0367279,596.968689,169.0045776,593.2285767,169.0045776z M565.5183105,181.7641754v-4.6306458
	c0-1.4692078,1.19104-2.660202,2.6601562-2.660202h22.3283081c1.4691772,0,2.6602173,1.1909943,2.6602173,2.660202v4.6306458
	H565.5183105z"/>
</svg>
